<svg width="96" height="96" viewBox="0 0 96 96" fill="none" xmlns="http://www.w3.org/2000/svg">
<circle cx="48" cy="48" r="47" fill="white" stroke="white" stroke-width="2"/>
<path d="M69.2764 31L78.1463 42.7284L69.2764 54.4568H76.0957L84.9656 42.7284L76.0957 31H69.2764Z" fill="#F88D2A"/>
<path d="M59.498 48.7922H55.8932V45.0094H59.498C60.6673 45.0094 61.4785 45.7461 61.4785 46.8999C61.4785 47.9917 60.6673 48.7922 59.498 48.7922ZM45.5626 46.1952C44.6848 47.8301 42.8662 48.7922 40.7561 48.7922C37.0866 48.7922 34.6815 46.2911 34.6815 42.7017C34.6815 39.1124 37.0848 36.6112 40.7561 36.6112C42.868 36.6112 44.6866 37.5733 45.5626 39.1763L50.0776 36.6183V48.7834L45.5626 46.1952ZM55.8914 36.6112H58.8792C59.9189 36.6112 60.7302 37.284 60.7302 38.3739C60.7302 39.5277 59.8848 40.1366 58.8792 40.1366H55.8914V36.6112ZM64.4358 42.3165C65.7669 41.2905 66.5476 39.7834 66.5476 37.8609C66.5476 33.8863 63.5598 31.4828 59.0447 31.4828H50.0794V35.555C48.009 32.7609 44.575 31.0017 40.7561 31.0017C34.5197 31.0017 29.8553 35.1822 29.0297 40.8769V31.4828H23.2159V46.0035C23.2159 47.6064 22.4046 48.8242 20.032 48.8242C17.6611 48.8242 16.8481 47.6064 16.8481 46.0035V31.4828H11.0343V46.5485C11.0343 51.3573 14.8028 54.4017 20.032 54.4017C25.2611 54.4017 29.0297 51.3573 29.0297 46.5485V44.5266C29.8535 50.2212 34.5179 54.4017 40.7561 54.4017C44.6038 54.4017 48.0126 52.6443 50.0794 49.8502V53.9224H59.6617C64.2739 53.9224 67.2941 51.3254 67.2941 47.3508C67.2923 45.0733 66.1896 43.3425 64.4358 42.3165ZM11.6531 60.1425C11.6531 60.6041 11.6531 61.1064 12.0956 61.4792C12.3223 61.6692 12.7054 61.7934 13.0148 61.7934C13.3242 61.7934 13.7073 61.6692 13.934 61.4792C14.3765 61.1082 14.3765 60.6059 14.3765 60.1425V57.068H14.9953V60.3076C14.9953 60.7692 14.9449 61.2147 14.6445 61.6266C14.3099 62.081 13.7253 62.3686 13.0148 62.3686C12.3043 62.3686 11.7197 62.081 11.3851 61.6266C11.0847 61.2147 11.0343 60.7692 11.0343 60.3076V57.068H11.6531V60.1425ZM15.6573 58.8485H16.2581V59.2443C16.3678 59.1041 16.6754 58.765 17.2528 58.765C17.6629 58.765 18.0371 58.9301 18.2476 59.2354C18.4238 59.4911 18.449 59.7715 18.449 60.1514V62.2709H17.8482V60.1674C17.8482 59.9615 17.832 59.7218 17.6881 59.5408C17.5712 59.3917 17.3877 59.2922 17.1197 59.2922C16.911 59.2922 16.6862 59.3508 16.5099 59.5567C16.2761 59.8301 16.2581 60.2331 16.2581 60.4798V62.2692H15.6573V58.8485ZM19.5607 58.8485V62.2709H18.9599V58.8485H19.5607ZM19.2603 57.068C19.4941 57.068 19.6866 57.2579 19.6866 57.4887C19.6866 57.7195 19.4941 57.9094 19.2603 57.9094C19.0264 57.9094 18.834 57.7195 18.834 57.4887C18.834 57.2561 19.0264 57.068 19.2603 57.068ZM21.0249 59.3934V62.2709H20.4241V59.3934H20.0554V58.8485H20.4241V57.6112H21.0249V58.8485H21.6257V59.3934H21.0249ZM24.3851 60.1834C24.2844 59.6473 23.8743 59.2922 23.3652 59.2922C22.8561 59.2922 22.437 59.6721 22.3453 60.1834H24.3851ZM24.9769 61.3958C24.8762 61.5857 24.7251 61.7917 24.5506 61.9479C24.234 62.2283 23.8401 62.3686 23.3976 62.3686C22.5629 62.3686 21.6851 61.8502 21.6851 60.5792C21.6851 59.5567 22.3201 58.765 23.3634 58.765C24.0397 58.765 24.4661 59.0952 24.6765 59.3917C24.8942 59.697 25.0183 60.2242 25.0021 60.6786H22.3039C22.3129 61.3869 22.804 61.8414 23.4066 61.8414C23.6908 61.8414 23.9156 61.7597 24.1171 61.5946C24.2754 61.4615 24.4013 61.2893 24.4769 61.1242L24.9769 61.3958ZM26.0328 60.5561C26.0328 61.2893 26.4502 61.8414 27.1697 61.8414C27.9054 61.8414 28.3227 61.2396 28.3227 60.5632C28.3227 59.681 27.7039 59.2922 27.1697 59.2922C26.5743 59.294 26.0328 59.7218 26.0328 60.5561ZM28.2886 57.068H28.8894V62.2709H28.2886V61.7934C28.0871 62.049 27.7111 62.3703 27.1013 62.3703C26.2235 62.3703 25.414 61.7615 25.414 60.5561C25.414 59.3757 26.2163 58.7668 27.1013 58.7668C27.7687 58.7668 28.1285 59.1307 28.2886 59.3366V57.068ZM68.109 61.6922H69.3969C69.7567 61.6922 70.1074 61.6674 70.3737 61.4615C70.5913 61.3053 70.7406 61.0337 70.7406 60.7035C70.7406 60.2668 70.4816 60.0112 70.2639 59.8958C70.0553 59.7804 69.7621 59.7307 69.3196 59.7307H68.1072V61.6922H68.109ZM68.109 59.1857H69.2458C69.5714 59.1857 70.3413 59.1857 70.3413 58.4384C70.3413 57.6396 69.4383 57.6449 69.2638 57.6449H68.1108V59.1857H68.109ZM69.1631 57.068C69.4725 57.068 69.9959 57.0396 70.406 57.3609C70.5823 57.494 70.9079 57.8189 70.9079 58.4224C70.9079 58.694 70.7802 59.1165 70.3917 59.3348C71.0986 59.5692 71.3612 60.21 71.3612 60.7195C71.3612 61.2467 71.095 61.6763 70.7928 61.907C70.3503 62.2532 69.8412 62.2692 69.4563 62.2692H67.492V57.068H69.1631ZM72.2606 60.5561C72.2606 61.2893 72.6779 61.8414 73.3975 61.8414C74.1332 61.8414 74.5505 61.2396 74.5505 60.5632C74.5505 59.681 73.9317 59.2922 73.3975 59.2922C72.8039 59.294 72.2606 59.7218 72.2606 60.5561ZM74.5163 58.8485H75.1171V62.2709H74.5163V61.7934C74.3149 62.049 73.9389 62.3703 73.3291 62.3703C72.4513 62.3703 71.6418 61.7615 71.6418 60.5561C71.6418 59.3757 72.4441 58.7668 73.3291 58.7668C73.9983 58.7668 74.3562 59.1307 74.5163 59.3366V58.8485ZM75.6586 58.8485H76.2594V59.2443C76.3673 59.1041 76.6767 58.765 77.2541 58.765C77.6643 58.765 78.0384 58.9301 78.2489 59.2354C78.4234 59.4911 78.4486 59.7715 78.4486 60.1514V62.2709H77.8478V60.1674C77.8478 59.9615 77.8316 59.7218 77.6895 59.5408C77.5725 59.3917 77.3891 59.2922 77.121 59.2922C76.9124 59.2922 76.6875 59.3508 76.5112 59.5567C76.2774 59.8301 76.2612 60.2331 76.2612 60.4798V62.2692H75.6604V58.8485H75.6586ZM79.562 57.068V60.1177L80.832 58.8485H81.6181L80.1304 60.3165L81.8861 62.2709H81.1L79.7131 60.7124L79.562 60.8597V62.2709H78.9612V57.068H79.562ZM36.2321 59.9224C36.0702 60.0822 35.9785 60.2881 35.9785 60.5615C35.9785 60.8739 36.1026 61.0709 36.2321 61.2005C36.3706 61.3372 36.5721 61.4437 36.8653 61.4437C37.1117 61.4437 37.3204 61.3603 37.4823 61.2005C37.6442 61.0408 37.7359 60.8348 37.7359 60.5615C37.7359 60.2881 37.6442 60.0822 37.4823 59.9224C37.3204 59.7627 37.1117 59.6792 36.8581 59.6792C36.6027 59.6774 36.394 59.7627 36.2321 59.9224ZM38.3601 61.8236C38.0525 62.1272 37.5273 62.3721 36.8563 62.3721C36.1854 62.3721 35.6619 62.1289 35.3525 61.8236C35.0053 61.481 34.8362 60.9946 34.8362 60.5597C34.8362 60.1266 35.0053 59.6384 35.3525 59.2976C35.6619 58.9922 36.1854 58.749 36.8563 58.749C37.5273 58.749 38.0525 58.9922 38.3601 59.2976C38.7073 59.6402 38.8764 60.1266 38.8764 60.5597C38.8782 60.9946 38.7073 61.481 38.3601 61.8236ZM39.1498 58.8644H40.2597V59.2603C40.5457 58.8343 40.9612 58.781 41.2238 58.781C41.3713 58.781 41.6412 58.797 41.8714 58.9337C42.0495 59.0331 42.1952 59.1999 42.2869 59.4059C42.3715 59.2692 42.5028 59.1094 42.7259 58.9709C42.9651 58.8272 43.1881 58.781 43.458 58.781C43.8735 58.781 44.2135 58.9035 44.4221 59.1005C44.7531 59.413 44.7765 59.8692 44.7765 60.1124V62.2585H43.6666V60.5384C43.6666 60.3644 43.6666 60.0591 43.5191 59.8763C43.4274 59.7627 43.2799 59.6934 43.118 59.6934C42.9327 59.6934 42.778 59.7769 42.6863 59.8993C42.5406 60.0822 42.5172 60.3485 42.5172 60.5686V62.2585H41.4055V60.4922C41.4055 60.2632 41.3983 59.997 41.2292 59.8301C41.1123 59.7165 40.9738 59.6934 40.8587 59.6934C40.713 59.6934 40.5817 59.7325 40.4737 59.8301C40.2651 60.0289 40.2579 60.4088 40.2579 60.5224V62.2567H39.148V58.8644H39.1498ZM45.2298 58.8644H46.3397V59.2603C46.6257 58.8343 47.0412 58.781 47.3038 58.781C47.4513 58.781 47.7212 58.797 47.9514 58.9337C48.1295 59.0331 48.2752 59.1999 48.3687 59.4059C48.4533 59.2692 48.5846 59.1094 48.8077 58.9709C49.0469 58.8272 49.2699 58.781 49.5398 58.781C49.9553 58.781 50.2953 58.9035 50.5039 59.1005C50.8349 59.413 50.8583 59.8692 50.8583 60.1124V62.2585H49.7484V60.5384C49.7484 60.3644 49.7484 60.0591 49.6009 59.8763C49.5092 59.7627 49.3617 59.6934 49.1998 59.6934C49.0145 59.6934 48.8598 59.7769 48.7681 59.8993C48.6224 60.0822 48.599 60.3485 48.599 60.5686V62.2585H47.4873V60.4922C47.4873 60.2632 47.4801 59.997 47.311 59.8301C47.1941 59.7165 47.0556 59.6934 46.9405 59.6934C46.7948 59.6934 46.6635 59.7325 46.5555 59.8301C46.3469 60.0289 46.3397 60.4088 46.3397 60.5224V62.2567H45.2298V58.8644ZM52.4197 58.8644V60.7372C52.4197 60.8899 52.4359 61.126 52.6121 61.2857C52.6895 61.355 52.828 61.4455 53.0744 61.4455C53.2831 61.4455 53.445 61.3763 53.5439 61.2857C53.7058 61.1331 53.7292 60.9059 53.7292 60.7372V58.8644H54.8409V60.8437C54.8409 61.2325 54.8013 61.5982 54.4541 61.9319C54.0602 62.3118 53.4828 62.3739 53.0744 62.3739C52.6499 62.3739 52.0797 62.3135 51.6876 61.9319C51.371 61.6283 51.3098 61.2857 51.3098 60.9112V58.8644H52.4197ZM55.2852 58.8644H56.3951V59.2674C56.735 58.8414 57.1344 58.7721 57.46 58.7721C57.7604 58.7721 58.1543 58.8254 58.4475 59.1147C58.7713 59.4343 58.7947 59.8372 58.7947 60.1124V62.2585H57.6848V60.5153C57.6848 60.2934 57.6776 60.013 57.4995 59.8372C57.415 59.7538 57.2765 59.6845 57.075 59.6845C56.8448 59.6845 56.6973 59.7751 56.6127 59.8674C56.4274 60.0502 56.3969 60.2934 56.3969 60.5135V62.2567H55.287V58.8644H55.2852ZM60.2679 58.8644V62.2585H59.158V58.8644H60.2679ZM59.7121 57.068C60.0736 57.068 60.3597 57.3485 60.3597 57.707C60.3597 58.0656 60.0736 58.3461 59.7121 58.3461C59.3505 58.3461 59.0645 58.0638 59.0645 57.707C59.0645 57.3502 59.3505 57.068 59.7121 57.068ZM62.0811 59.7467V62.2585H60.9713V59.7467H60.5845V58.8644H60.9713V57.7674H62.0811V58.8644H62.7665V59.7467H62.0811Z" fill="#0055B8"/>
<path d="M63.9015 61.8235L62.2592 58.8643H63.5399L64.5113 60.7051L65.4593 58.8643H66.7095L63.9411 63.9998H62.6909L63.9015 61.8235ZM33.7533 60.5667C33.6185 60.7477 33.4425 60.8949 33.2393 60.9964C33.0362 61.0978 32.8118 61.1507 32.5841 61.1507C31.7818 61.1507 31.1307 60.5081 31.1307 59.7164C31.1307 58.9247 31.7818 58.2821 32.5841 58.2821C33.0644 58.2821 33.4889 58.5128 33.7533 58.8661L34.8182 58.2501C34.338 57.5383 33.5159 57.0679 32.5841 57.0679C31.1019 57.0679 29.9003 58.2537 29.9003 59.7164C29.9003 61.1791 31.1019 62.3649 32.5841 62.3649C33.5177 62.3649 34.338 61.8945 34.8182 61.1827L33.7533 60.5667Z" fill="#0055B8"/>
</svg>
