<svg width="24" height="24" viewBox="0 0 24 24" fill="none" xmlns="http://www.w3.org/2000/svg">
<path d="M20.1444 23.9956H3.85547V0.0078125H20.1444V23.9956Z" fill="#001E5E"/>
<path d="M10.5656 14.6043C10.7812 8.66736 13.9837 3.41403 18.7935 0H15.5992C11.7009 3.38553 9.08446 8.13833 8.97458 13.4201C8.88924 17.6073 9.69482 20.7894 11.9166 24H12.7304C10.9929 21.0458 10.4435 17.9451 10.5656 14.6043Z" fill="white"/>
<path d="M11.0947 23.9997C9.16996 21.957 6.84647 18.1116 6.57386 13.957C6.24018 8.87457 7.92074 3.92643 11.3104 0.0078125H13.935C9.7885 4.12176 7.68473 9.57036 8.1649 14.9864C8.47415 18.4453 9.83324 21.0048 11.9207 23.9997H11.0947Z" fill="#FDB811"/>
<path d="M11.9817 18.9871C13.7315 17.1763 15.3632 14.5598 15.8759 11.9474C16.5962 8.28922 15.648 5.26579 15.5871 5.05826C15.5422 4.90767 15.518 4.80994 15.5422 4.79783C15.591 4.7683 15.9614 5.42859 16.2137 5.94945C16.6979 6.9586 17.2188 8.59032 17.1944 10.4662C17.1577 12.7938 16.3276 15.1091 14.822 16.8955C14.3012 17.514 13.703 18.0634 13.0275 18.5231C12.588 18.8202 11.8312 19.2312 11.8068 19.1905C11.789 19.1669 11.8757 19.0969 11.9817 18.9871Z" fill="white"/>
<path d="M11.9206 19.0409C13.0966 17.6859 14.1545 15.7693 14.4109 13.9056C14.773 11.2891 13.9714 9.19354 13.9185 9.04705C13.8778 8.94547 13.8574 8.87605 13.8737 8.86808C13.9103 8.84446 14.2033 9.29533 14.4026 9.65343C14.7892 10.3452 15.2327 11.4764 15.2897 12.803C15.3588 14.4469 14.8665 16.1193 13.8655 17.4419C13.5156 17.9016 13.1127 18.3167 12.6488 18.6707C12.3477 18.8987 11.8269 19.2201 11.8065 19.1916C11.7888 19.1709 11.8515 19.1224 11.9206 19.0409Z" fill="#FDB811"/>
</svg>
