<svg width="96" height="96" viewBox="0 0 96 96" fill="none" xmlns="http://www.w3.org/2000/svg">
<circle cx="48" cy="48" r="47" fill="white" stroke="white" stroke-width="2"/>
<g clip-path="url(#clip0_1_9279)">
<path d="M83.6121 61.2014H12.1533C11.7768 61.2014 11.4709 60.8955 11.4709 60.519V38.0484C11.4709 37.672 11.7768 37.3661 12.1533 37.3661H83.6121C83.9886 37.3661 84.2945 37.672 84.2945 38.0484V60.4955C84.2945 60.8955 83.9886 61.2014 83.6121 61.2014Z" stroke="#0B5E66" stroke-width="0.705882" stroke-miterlimit="10"/>
<path d="M34.1289 57.413C34.4348 57.6013 34.8584 57.7424 35.3289 57.7424C36.0113 57.7424 36.4113 57.3895 36.4113 56.8719C36.4113 56.4013 36.1289 56.1189 35.4466 55.8366C34.5995 55.5307 34.0819 55.1071 34.0819 54.3777C34.0819 53.5777 34.7407 52.9895 35.7525 52.9895C36.2701 52.9895 36.6701 53.1071 36.8819 53.2483L36.6936 53.7895C36.5289 53.6954 36.176 53.5542 35.7054 53.5542C34.9995 53.5542 34.7407 53.9777 34.7407 54.3307C34.7407 54.8013 35.0466 55.0601 35.776 55.3189C36.6466 55.6483 37.0936 56.0719 37.0936 56.8248C37.0936 57.6248 36.5054 58.3071 35.2819 58.3071C34.7878 58.3071 34.2466 58.166 33.9642 57.9777L34.1289 57.413Z" fill="#035C67"/>
<path d="M38.8115 56.5895L38.2704 58.213H37.588L39.3292 53.0601H40.1292L41.8939 58.213H41.188L40.6468 56.5895H38.8115ZM40.5057 56.0718L40.0115 54.5895C39.8939 54.2601 39.8233 53.9542 39.7527 53.6483H39.7292C39.6586 53.9542 39.5645 54.2601 39.4704 54.5895L38.9762 56.0718H40.5057Z" fill="#035C67"/>
<path d="M43.7995 58.213L42.1289 53.0601H42.8583L43.6583 55.6012C43.8701 56.3071 44.0818 56.9189 44.1995 57.5306H44.223C44.3642 56.9424 44.576 56.2836 44.8113 55.6012L45.6818 53.0601H46.3877L44.5524 58.213H43.7995Z" fill="#035C67"/>
<path d="M47.5884 53.0601V58.213H46.9296V53.0601H47.5884Z" fill="#035C67"/>
<path d="M48.7643 58.213V53.0601H49.4937L51.1408 55.6718C51.5172 56.2836 51.8231 56.8248 52.0584 57.3424H52.0819C52.0113 56.6601 52.0113 56.0248 52.0113 55.2248V53.0601H52.6466V58.213H51.9643L50.3172 55.6012C49.9643 55.0365 49.6113 54.4483 49.3525 53.8836H49.329C49.376 54.5424 49.376 55.1542 49.376 56.0012V58.213H48.7643Z" fill="#035C67"/>
<path d="M57.7055 57.9777C57.3996 58.0954 56.8114 58.2601 56.129 58.2601C55.3526 58.2601 54.7173 58.0719 54.1996 57.5777C53.7526 57.1542 53.4702 56.4719 53.4702 55.6483C53.4702 54.1189 54.529 52.9895 56.2702 52.9895C56.8584 52.9895 57.329 53.1307 57.5643 53.2248L57.3996 53.766C57.1173 53.6483 56.7879 53.5542 56.2702 53.5542C55.0232 53.5542 54.1996 54.3307 54.1996 55.6248C54.1996 56.9424 54.9761 57.6954 56.1996 57.6954C56.6467 57.6954 56.929 57.6248 57.0937 57.5542V56.0248H56.0349V55.4836H57.729V57.9777H57.7055Z" fill="#035C67"/>
<path d="M58.6469 57.413C58.9528 57.6013 59.3763 57.7424 59.8469 57.7424C60.5292 57.7424 60.9292 57.3895 60.9292 56.8719C60.9292 56.4013 60.6469 56.1189 59.9645 55.8366C59.1175 55.5307 58.5998 55.1071 58.5998 54.3777C58.5998 53.5777 59.2586 52.9895 60.2704 52.9895C60.7881 52.9895 61.1881 53.1071 61.3998 53.2483L61.2116 53.7895C61.0469 53.6954 60.6939 53.5542 60.2234 53.5542C59.5175 53.5542 59.2586 53.9777 59.2586 54.3307C59.2586 54.8013 59.5645 55.0601 60.2939 55.3189C61.1645 55.6483 61.6116 56.0719 61.6116 56.8248C61.6116 57.6248 61.0234 58.3071 59.7998 58.3071C59.3057 58.3071 58.7645 58.166 58.4822 57.9777L58.6469 57.413Z" fill="#035C67"/>
<path d="M64.1292 53.1307C64.4116 53.0601 64.8822 53.0131 65.3528 53.0131C66.0116 53.0131 66.4351 53.1307 66.7645 53.3895C67.0234 53.5778 67.1881 53.8836 67.1881 54.3072C67.1881 54.8013 66.8587 55.2484 66.3175 55.4366V55.4601C66.8116 55.5778 67.3763 55.9778 67.3763 56.7542C67.3763 57.2013 67.2116 57.5307 66.9292 57.7895C66.5763 58.1189 65.9881 58.2601 65.141 58.2601C64.694 58.2601 64.341 58.2366 64.1057 58.1895V53.1307H64.1292ZM64.7881 55.2484H65.3998C66.1057 55.2484 66.5057 54.8719 66.5057 54.3778C66.5057 53.766 66.0351 53.5307 65.3763 53.5307C65.0704 53.5307 64.9057 53.5542 64.7881 53.5778V55.2484ZM64.7881 57.7189C64.9292 57.7425 65.1175 57.7425 65.3528 57.7425C66.0351 57.7425 66.6704 57.4837 66.6704 56.7307C66.6704 56.0248 66.0587 55.7425 65.3292 55.7425H64.7881V57.7189Z" fill="#035C67"/>
<path d="M69.094 56.5895L68.5528 58.213H67.8705L69.6117 53.0601H70.4117L72.1764 58.213H71.4705L70.9293 56.5895H69.094ZM70.7881 56.0718L70.294 54.5895C70.1764 54.2601 70.1058 53.9542 70.0352 53.6483H70.0117C69.9411 53.9542 69.847 54.2601 69.7528 54.5895L69.2587 56.0718H70.7881Z" fill="#035C67"/>
<path d="M72.9528 58.213V53.0601H73.6822L75.3292 55.6718C75.7057 56.2836 76.0116 56.8248 76.2469 57.3424H76.2704C76.1998 56.6601 76.1998 56.0248 76.1998 55.2248V53.0601H76.8351V58.213H76.1528L74.5057 55.6012C74.1528 55.0365 73.7998 54.4483 73.541 53.8836H73.5175C73.5645 54.5424 73.5645 55.1542 73.5645 56.0012V58.213H72.9528Z" fill="#035C67"/>
<path d="M77.9883 53.0601H78.6471V55.5542H78.6706C78.8118 55.3659 78.953 55.1777 79.0706 55.013L80.6471 53.0836H81.4706L79.6118 55.2718L81.6118 58.2365H80.8353L79.1412 55.6954L78.6471 56.2601V58.2365H77.9883V53.0601Z" fill="#035C67"/>
<path d="M33.8945 40.9189H35.3063V50.7072H40.0122V51.9072H33.8945V40.9189Z" fill="#94B7BB"/>
<path d="M43.2115 41.8131C43.235 42.3072 42.8585 42.6837 42.2938 42.6837C41.7997 42.6837 41.4232 42.2837 41.4232 41.8131C41.4232 41.319 41.7997 40.919 42.3173 40.919C42.882 40.8954 43.2115 41.2954 43.2115 41.8131ZM41.6115 51.9072V44.0248H43.0467V51.9072H41.6115Z" fill="#94B7BB"/>
<path d="M45.5176 46.166C45.5176 45.3424 45.4941 44.6836 45.447 44.0248H46.7176L46.7882 45.3189H46.8117C47.2117 44.566 48.1058 43.8365 49.4235 43.8365C50.5058 43.8365 52.2 44.4954 52.2 47.2013V51.9071H50.7647V47.366C50.7647 46.0954 50.2941 45.0365 48.9294 45.0365C47.9882 45.0365 47.2588 45.6954 47 46.4954C46.9294 46.6836 46.9058 46.9189 46.9058 47.1542V51.9071H45.4706V46.166H45.5176Z" fill="#94B7BB"/>
<path d="M60.2704 51.6248C59.8939 51.813 59.0704 52.0719 58.0116 52.0719C55.6351 52.0719 54.0822 50.4483 54.0822 48.0483C54.0822 45.6248 55.7527 43.8601 58.3174 43.8601C59.1645 43.8601 59.9174 44.0719 60.3174 44.2601L59.988 45.366C59.6351 45.1778 59.1174 44.9895 58.3174 44.9895C56.5057 44.9895 55.541 46.3307 55.541 47.9778C55.541 49.813 56.7174 50.9189 58.2704 50.9189C59.0939 50.9189 59.6351 50.7072 60.0351 50.5189L60.2704 51.6248Z" fill="#94B7BB"/>
<path d="M69.1647 47.9071C69.1647 50.8248 67.1411 52.0954 65.2353 52.0954C63.0941 52.0954 61.447 50.5189 61.447 48.0248C61.447 45.3895 63.1647 43.8365 65.3529 43.8365C67.6353 43.8365 69.1647 45.4836 69.1647 47.9071ZM62.9058 47.9777C62.9058 49.6954 63.8941 51.013 65.3058 51.013C66.6706 51.013 67.7058 49.7189 67.7058 47.9542C67.7058 46.613 67.047 44.9189 65.3529 44.9189C63.6353 44.9189 62.9058 46.4718 62.9058 47.9777Z" fill="#94B7BB"/>
<path d="M71.0708 40.3307H72.5061V51.9072H71.0708V40.3307Z" fill="#94B7BB"/>
<path d="M75.0002 46.166C75.0002 45.3424 74.9766 44.6836 74.9296 44.0248H76.2002L76.2707 45.3189H76.2943C76.6943 44.566 77.5884 43.8365 78.906 43.8365C79.9884 43.8365 81.6825 44.4954 81.6825 47.2013V51.9071H80.2472V47.366C80.2472 46.0954 79.7766 45.0365 78.4119 45.0365C77.4707 45.0365 76.7413 45.6954 76.4825 46.4954C76.4119 46.6836 76.3884 46.9189 76.3884 47.1542V51.9071H75.0002V46.166Z" fill="#94B7BB"/>
<path d="M24.9529 45.5072C24.7176 45.2013 24.294 45.0601 23.9176 44.9425C23.494 44.8248 23.094 44.6837 22.647 44.7072C22.1999 44.7307 21.7999 44.9425 21.4705 45.2248C21.1411 45.5072 20.9058 45.8837 20.7176 46.2837C20.6234 46.4719 20.5529 46.6601 20.5529 46.8719C20.5529 46.966 20.5529 47.0837 20.6234 47.1778C20.7646 47.3895 20.9999 47.2484 21.1646 47.1542C21.3293 47.0837 21.3999 47.0131 21.5646 46.9895C21.7058 46.9895 21.6823 46.9895 21.9646 47.0601C22.0823 47.0837 22.1764 47.1307 22.294 47.1778C22.5764 47.2954 22.8587 47.1542 23.094 47.0366C23.2352 46.966 23.3999 46.9425 23.5176 47.0366C23.5882 47.1072 23.6352 47.2013 23.6352 47.3189C23.6587 47.5542 23.5646 47.8131 23.3764 48.0013C23.1882 48.2131 22.9058 48.2601 22.647 48.3542C22.6234 48.4719 22.9999 48.4013 23.1882 48.3778C23.3293 48.3542 23.494 48.3307 23.6352 48.2837C23.9882 48.1425 24.1058 47.8366 24.2705 47.5307C24.4117 47.2954 24.5999 47.0837 24.8352 46.9425C24.9529 46.8719 25.094 46.8013 25.1646 46.6837C25.2587 46.5189 25.2352 46.3072 25.1882 46.1425C25.1646 45.9307 25.094 45.6954 24.9529 45.5072ZM22.4823 46.5895C22.3646 46.5895 22.0823 46.6837 22.0823 46.4719C22.0823 46.2131 22.8823 45.9778 23.1176 46.3072C23.2823 46.6131 22.7646 46.5895 22.4823 46.5895Z" fill="#0B5E66"/>
<path d="M16.7176 46.9425C16.5764 46.7072 16.5058 46.4013 16.2941 46.2366C16.1294 46.0954 15.9176 46.0719 15.7058 46.0719C15.5176 46.0719 15.3058 46.0484 15.1411 46.1896C14.9764 46.3072 14.8823 46.519 14.8117 46.7072C14.7882 46.7778 14.7647 46.8719 14.7882 46.9425C14.8352 47.1307 15.047 47.0837 15.1647 46.9896C15.2117 46.9425 15.2588 46.8954 15.3058 46.8248C15.4 46.7307 15.5176 46.6366 15.6588 46.6131C16.1058 46.5425 16.1058 47.1543 16.4588 47.2719C16.5058 47.2954 16.5529 47.2954 16.6 47.3425C16.6235 47.366 16.6235 47.4131 16.6 47.4366C16.5529 47.5072 16.4588 47.5307 16.3882 47.5778C16.2941 47.6248 16.1764 47.6719 16.0823 47.719C15.9647 47.7896 15.847 47.8837 15.8235 48.0248C15.8 48.0954 15.8235 48.166 15.847 48.2366C15.9176 48.4719 16.1058 48.6601 16.247 48.8719C16.2705 48.8954 16.3647 49.0601 16.4588 49.0601C16.5529 49.0601 16.5058 48.919 16.5058 48.8484C16.4823 48.5425 16.6705 48.1896 16.9058 48.0013C16.9529 47.9543 17 47.9307 17.0235 47.8837C17.0941 47.8131 17.0941 47.6719 17.047 47.6013C16.9529 47.3425 16.8588 47.1307 16.7176 46.9425Z" fill="#0B5E66"/>
<path d="M31.494 61.3895C31.847 61.4131 32.0352 61.366 31.7764 61.2483C31.1646 60.9895 30.7646 60.8719 30.3881 60.6131C29.9646 60.3307 29.847 60.2366 29.5882 59.8836C29.3058 59.4601 29.1646 58.966 28.7881 58.6131C28.6234 58.4248 28.4117 58.3307 28.1764 58.2601C28.0117 58.2131 27.7293 58.1189 27.6823 57.9307C27.6587 57.8366 27.7058 57.7189 27.7999 57.5778C28.4352 57.2013 28.5058 56.5189 28.5764 55.8601C28.6234 55.5072 28.8587 55.2248 28.9058 54.8719C28.9529 54.5189 28.7646 54.2836 28.7646 53.9542C28.7646 53.7895 28.8352 53.6719 28.8823 53.5072C28.9529 53.3189 28.9529 53.1542 28.9529 52.966C28.9529 52.7307 28.8823 52.4954 28.8823 52.2601C28.8587 52.0483 29.0705 51.8601 29.1646 51.6719C29.3293 51.366 29.3529 50.966 29.447 50.6601C29.494 50.4954 29.5411 50.3307 29.5882 50.166C29.6352 50.0013 29.7293 49.8366 29.7764 49.6719C29.9411 49.0601 30.1529 48.4248 30.5058 47.8836C30.694 47.6013 30.9058 47.2954 30.9529 46.9425C31.3293 46.6131 31.5411 46.1189 31.6352 45.6248C31.7764 44.9189 31.6352 44.0954 31.447 43.3895C31.3293 42.9425 31.1176 42.5189 30.7881 42.1895C30.7411 42.1425 30.694 42.0954 30.6705 42.0483C30.647 42.0013 30.647 41.9542 30.647 41.8836C30.6234 41.3895 30.1764 41.1542 30.0823 40.7072C30.0352 40.4719 30.1058 40.2131 30.0587 39.9542C30.0117 39.766 29.9411 39.6013 29.8234 39.4601C29.5646 39.0836 29.2117 38.8954 28.8587 38.6366C28.6705 38.5189 28.3881 38.2601 28.3176 38.0248C28.247 37.7895 28.1999 37.5542 28.0352 37.3425C27.8234 37.1072 27.4234 36.9895 27.1411 36.8954C26.8352 36.8013 26.4117 36.8248 26.1999 36.5189C26.1293 36.4013 26.0117 36.2836 25.9176 36.1895C25.7293 36.0248 25.5411 35.8836 25.3058 35.7895C24.8823 35.6013 24.4117 35.6013 23.9411 35.5778C23.894 35.5778 23.8234 35.5778 23.7764 35.5778C23.3293 35.5778 22.8823 35.5778 22.4587 35.7189C22.2234 35.7895 22.0117 35.9307 21.8234 36.1189C21.7293 36.2131 21.6352 36.3072 21.5646 36.4248C21.5176 36.4954 21.447 36.6836 21.3529 36.7072C21.3058 36.7307 21.2587 36.7072 21.2352 36.7072C21.1176 36.7072 20.9999 36.6836 20.9058 36.7072C20.6705 36.7542 20.4823 36.9425 20.2705 37.0601C20.0117 37.1778 19.7529 37.2954 19.494 37.4366C19.2587 37.5778 18.9529 37.6483 18.6705 37.7425C18.0587 37.9307 17.447 38.1425 17.1646 38.7072C17.1646 38.7307 16.9058 39.2013 16.8117 39.3425C16.8117 39.3425 16.5764 39.9307 16.4352 40.166C15.9882 40.8248 15.2352 41.3895 15.3058 42.2366C15.3058 42.8483 15.0234 42.9895 14.647 43.4366C14.0587 44.1189 13.3293 45.0836 13.6587 46.1425C13.1882 46.6601 13.8234 48.1425 14.1764 48.6836L14.7176 49.2954C14.7882 49.4836 14.8823 50.0483 15.1176 50.4954C15.3058 50.8483 15.6587 51.0836 15.7529 51.2248C15.8705 51.5072 16.1293 51.9542 16.4587 52.0013C17.5646 52.1895 16.647 53.7189 17.9411 53.9542C18.1293 54.2131 18.1764 54.5895 18.1999 54.9425C18.1999 54.966 18.1999 55.0601 18.1999 55.0836C18.2234 55.4131 18.2705 55.7895 18.4587 56.0719C18.5529 56.1895 18.647 56.3072 18.7881 56.3778C18.9293 56.4719 19.1411 56.4719 19.2352 56.6131C19.2823 56.6836 19.2823 56.7542 19.2823 56.8483C19.3293 57.0131 19.447 57.1778 19.5882 57.2719C19.7293 57.3895 19.894 57.4601 20.0352 57.5542C20.3882 57.7895 20.694 58.0719 20.9764 58.3778C21.1882 58.5895 21.3764 58.8013 21.5882 59.0131C21.6587 59.0836 21.7529 59.1778 21.847 59.2248C21.9411 59.2719 22.0587 59.2954 22.1764 59.3189C22.7881 59.4131 23.3999 59.366 24.0352 59.3425C24.1999 59.3425 24.3882 59.3425 24.5058 59.4601C24.5764 59.5307 24.5999 59.6248 24.6234 59.7189C24.6705 59.8131 24.7411 59.9072 24.8352 59.9072C24.9058 59.9072 24.9764 59.8601 25.0234 59.8131C25.2823 59.6013 25.5176 59.366 25.7999 59.2248C26.3411 58.9189 26.9999 59.1307 27.2823 59.7189C27.4234 60.0248 27.4705 60.3778 27.3529 60.7072C27.3529 60.7307 27.3293 60.7542 27.3293 60.7542C27.3058 60.7778 27.2587 60.7778 27.2352 60.7778C26.9764 60.7778 26.7646 60.6836 26.5058 60.6366C26.1764 60.5425 25.847 60.4483 25.5176 60.3778C25.094 60.2601 24.647 60.2366 24.1999 60.2836C24.0587 60.3072 23.9176 60.3307 23.7999 60.3778C23.6587 60.4248 23.6117 60.4719 23.5176 60.3778C23.3293 60.2131 23.2117 60.0719 22.9529 60.0248C22.5293 59.9072 22.0587 60.0483 21.6823 60.2131C21.2823 60.3542 20.8117 60.3778 20.4352 60.1425C20.0352 59.9072 19.8705 59.4601 19.5646 59.1072C19.447 58.9425 19.2823 58.8248 19.1411 58.6836C18.5529 58.166 18.0117 57.6013 17.9176 56.8013C17.8705 56.4483 17.894 56.0954 17.9411 55.766C17.9646 55.6248 18.0587 55.366 18.0117 55.2248C17.894 54.8013 17.2352 55.2248 17.0705 55.3895C16.7176 55.7189 16.5293 56.1895 16.3176 56.6131C16.1058 57.0366 15.9646 57.5072 15.6587 57.8836C15.3764 58.2366 14.9999 58.4719 14.5999 58.6601C14.1529 58.8719 13.6587 59.0366 13.2117 59.2719C12.8352 59.4836 12.4587 59.6719 12.0823 59.8601C11.9411 59.9307 11.4705 60.0954 11.5882 61.2013C11.6117 61.5542 17.2587 61.4836 22.5764 61.4366C27.894 61.366 30.7881 61.366 31.494 61.3895ZM14.1764 47.7895L14.1529 47.7425C14.1764 47.766 14.1764 47.766 14.1764 47.7895ZM15.3999 50.0719L15.4234 50.0954C15.3999 50.0954 15.3999 50.0719 15.3999 50.0719ZM17.6823 50.0013C17.6352 50.4013 17.3529 50.7778 16.9764 50.966C16.8587 51.0366 16.694 51.0601 16.5764 51.0131C16.4823 50.966 16.4117 50.8719 16.3646 50.7778C16.1058 50.3542 15.8705 49.9072 15.5646 49.5072C15.2587 49.0836 14.9529 48.6601 14.7411 48.166C14.5529 47.7189 14.4352 47.2483 14.5293 46.7542C14.5764 46.4248 14.7411 46.1425 14.9058 45.8601C15.0234 45.6483 15.1646 45.4601 15.3764 45.3425C15.847 45.1072 16.4587 45.3189 16.8117 45.6719C17.3529 46.2131 17.7529 47.2954 17.494 48.0483C17.447 48.166 17.3999 48.2601 17.3529 48.3778C17.2587 48.6366 17.3058 48.8954 17.3999 49.1542C17.5176 49.4366 17.7293 49.7189 17.6823 50.0013ZM27.1646 51.4131C26.8823 51.5778 26.4587 51.4836 26.1529 51.4601C25.8705 51.4366 25.5882 51.3895 25.3058 51.366C25.094 51.3425 24.8117 51.3425 24.5999 51.2248C24.247 51.0366 24.5999 50.4483 24.8117 50.1895C24.8352 50.166 24.8117 50.1189 24.7881 50.0954C24.5764 50.0483 24.3411 50.1425 24.1293 50.2601C22.9764 50.8954 21.1882 52.7542 21.3764 53.0131C21.494 53.1778 21.9646 52.566 22.1999 52.2601C22.6705 51.6954 23.1881 51.2248 23.847 50.966C23.7764 51.366 24.0823 51.7425 24.4587 51.9072C24.8352 52.0719 25.2587 52.0719 25.6587 52.1425C26.0587 52.1895 26.4823 52.3072 26.7646 52.6131C26.8117 52.6601 26.8587 52.7307 26.8587 52.8013C26.8587 52.966 26.694 53.0601 26.5293 53.1072C25.7764 53.2954 24.9999 53.1542 24.247 52.9425C23.494 52.7307 22.3176 52.5895 22.0823 53.4131C22.0587 53.5072 22.0117 53.6483 22.0823 53.7189C22.1293 53.7895 22.247 53.7895 22.3176 53.7425C22.3646 53.6954 22.3882 53.6248 22.4117 53.5542C22.4352 53.4836 22.5058 53.4131 22.5529 53.366C22.647 53.2954 22.7881 53.2719 22.9058 53.2483C23.3764 53.2013 23.7764 53.3425 24.1999 53.4836C24.9058 53.6954 25.6352 53.7425 26.3646 53.6248C26.4587 53.6013 26.5764 53.6013 26.647 53.6483C26.7881 53.766 26.6705 53.9778 26.5293 54.0954C26.1058 54.4248 25.5176 54.4013 24.9999 54.3072C24.5058 54.2131 24.0352 54.0719 23.5411 54.0954C23.4705 54.0954 23.3999 54.166 23.4234 54.2366C23.4705 54.4954 23.7058 54.7072 23.9646 54.7542C24.2705 54.8248 24.5764 54.7542 24.8823 54.7307C25.2823 54.6836 25.6823 54.6836 26.0823 54.7307C26.247 54.7542 26.4117 54.7778 26.4823 54.9895C26.5529 55.2013 26.4587 55.4131 26.294 55.5542C25.494 56.1895 24.4352 55.7189 23.447 55.6719C23.2352 55.6483 23.0234 55.6719 22.8352 55.5307C22.7176 55.4366 22.647 55.2954 22.5529 55.2013C22.3646 55.0131 22.0587 54.966 21.8234 55.0836C21.447 55.2719 21.2823 55.7895 20.7881 55.766C20.5293 55.7425 20.3411 55.5778 20.2234 55.366C19.9646 54.8719 20.0823 54.3307 19.9882 53.8131C19.9411 53.5307 19.8234 53.2483 19.7529 52.966C19.6587 52.5895 19.6587 52.1895 19.6352 51.7895C19.5882 51.0131 19.447 50.2601 19.2117 49.5307C19.0234 48.9425 18.7411 48.3072 18.9058 47.6954C18.9999 47.2954 19.2587 46.9895 19.447 46.6131C19.7293 46.0248 19.7764 45.3425 19.5646 44.7307C19.3999 44.2601 19.1176 43.8366 18.9764 43.3425C18.7411 42.566 18.9058 41.7189 19.1411 40.9425C19.3529 40.2366 19.6352 39.5072 20.1529 38.9895C20.694 38.4719 21.5411 38.2131 22.1999 38.566C22.4352 38.6836 22.647 38.8954 22.8823 39.0366C23.2587 39.2719 23.7293 39.366 24.0823 39.6013C24.5529 39.9307 24.8587 40.4954 25.3764 40.7542C25.7764 40.9425 26.3176 40.966 26.5764 41.3189C26.8823 41.7425 26.647 42.4483 27.0705 42.7542C27.2117 42.8483 27.3999 42.8719 27.5646 42.8719C27.9411 42.8954 28.294 42.9189 28.6705 42.966C28.7646 42.966 28.8587 42.9895 28.9293 42.9425C29.0234 42.8954 29.0705 42.7778 29.1176 42.7072C29.3058 42.4719 29.7058 42.4954 29.8705 42.7307C30.0352 42.9895 29.9411 43.3189 29.8705 43.6013C29.7058 44.2601 29.6587 44.9425 29.7529 45.6013C28.7646 45.5542 27.7999 45.6719 26.8587 45.9778C26.5999 46.0483 26.3176 46.166 26.2234 46.4248C26.1293 46.6836 26.247 46.966 26.3882 47.2248C26.8117 48.0954 27.1646 48.9895 27.3999 49.9072C27.5176 50.4013 27.6587 51.1307 27.1646 51.4131ZM27.8234 48.3778C27.894 48.3778 27.9881 48.3778 28.0587 48.3778C28.2234 48.3778 28.3881 48.3778 28.5529 48.4248C28.7176 48.4719 28.8823 48.5425 28.9999 48.6836C29.0705 48.7778 29.1176 48.9189 29.1646 49.0366C29.2587 49.3895 29.2587 49.8601 29.1411 50.2131C29.047 50.4483 28.9058 50.9189 28.5999 50.9895C28.4352 51.0131 28.294 50.966 28.247 50.9189C27.9176 50.7307 28.0587 49.2954 27.6352 48.4013C27.6352 48.4013 27.7999 48.3778 27.8234 48.3778Z" fill="#0B5E66"/>
</g>
<defs>
<clipPath id="clip0_1_9279">
<rect width="74" height="26.5412" fill="white" transform="translate(11 35.1307)"/>
</clipPath>
</defs>
</svg>
