<svg width="96" height="96" viewBox="0 0 96 96" fill="none" xmlns="http://www.w3.org/2000/svg">
<circle cx="48" cy="48" r="47" fill="white" stroke="white" stroke-width="2"/>
<g clip-path="url(#clip0_1_380)">
<path d="M12.1687 37C12.1681 37.0379 12.1671 37.0757 12.1671 37.1136C12.1671 39.7265 12.1671 42.3393 12.1671 44.9521V45.0813L12.1921 45.0917C12.2165 45.0698 12.2418 45.0487 12.2653 45.0259C12.7716 44.5361 13.2777 44.0462 13.7838 43.5561C14.856 42.5174 15.9279 41.4785 16.9996 40.4394C17.0475 40.393 17.0949 40.3695 17.1652 40.3699C17.6242 40.373 18.0833 40.3716 18.5427 40.3716H18.6242L18.6348 40.3908C17.3658 41.5977 16.0931 42.8011 14.8161 44.0151L18.7102 48.5152C18.662 48.5175 18.6354 48.5198 18.6087 48.5198C18.1814 48.5198 17.7541 48.5184 17.3266 48.5215C17.2524 48.5221 17.2036 48.4988 17.1562 48.4438C16.1461 47.2757 15.1345 46.1082 14.1213 44.9415C14.0829 44.8972 14.0431 44.854 13.9987 44.8044C13.9702 44.8284 13.9457 44.847 13.9236 44.8679C13.3624 45.3966 12.8011 45.9251 12.2398 46.4535C12.2152 46.4749 12.1957 46.5013 12.1829 46.5309C12.1701 46.5605 12.1642 46.5925 12.1656 46.6246C12.1681 47.2099 12.167 47.7951 12.167 48.3805V48.5015C12.0842 48.5247 11.1413 48.5294 11.0142 48.508C11.0085 48.4831 11.0042 48.458 11.0014 48.4327C10.999 48.395 11.0004 48.357 11.0004 48.3191C11.0002 44.601 11.0002 40.8831 11.0006 37.1653C11.0006 37.1101 11.0022 37.0551 11.0032 37H12.1687Z" fill="#5D0A8B"/>
<path d="M32.4479 59C32.3727 58.9853 32.2978 58.969 32.2224 58.9558C31.8588 58.893 31.5197 58.735 31.2413 58.4987C31.2227 58.4832 31.2002 58.4723 31.1718 58.4546L31.5815 57.958C31.621 57.9934 31.6541 58.0225 31.6866 58.0523C32.0933 58.4241 32.5747 58.5299 33.109 58.4175C33.5397 58.3269 33.8159 58.0326 33.8665 57.6055C33.892 57.3911 33.8815 57.1728 33.8862 56.9563C33.8862 56.9445 33.8778 56.9326 33.862 56.8919C33.8423 56.9252 33.8334 56.9435 33.8217 56.9597C33.6195 57.2431 33.3313 57.3925 32.9899 57.4397C32.5257 57.5039 32.0966 57.407 31.7256 57.1195C31.3568 56.8335 31.1683 56.4521 31.1372 55.9965C31.1143 55.6606 31.166 55.3366 31.3301 55.0367C31.5766 54.5863 31.9643 54.329 32.4803 54.2517C32.747 54.2115 33.0083 54.2295 33.2622 54.3202C33.4818 54.3987 33.6723 54.5194 33.8192 54.6997C33.8321 54.7157 33.8394 54.736 33.8639 54.747C33.8995 54.6017 33.8783 54.4619 33.8942 54.3195H34.4744C34.4767 54.3585 34.4804 54.3918 34.4804 54.4255C34.4804 55.4239 34.4804 56.422 34.4804 57.4197C34.4797 57.8475 34.339 58.224 34.0254 58.5298C33.7639 58.7846 33.4401 58.9191 33.0789 58.9759C33.0448 58.9812 33.0118 58.9923 32.9782 59.0008L32.4479 59ZM32.8013 56.9261C32.9092 56.914 32.998 56.9108 33.0838 56.8932C33.4604 56.8159 33.7146 56.6017 33.8311 56.2407C33.8933 56.0461 33.9063 55.8397 33.869 55.6391C33.8149 55.3339 33.6718 55.082 33.3936 54.9161C33.2268 54.8168 33.043 54.7778 32.8489 54.7729C32.3471 54.7604 31.9545 55.0338 31.8183 55.4968C31.7478 55.7291 31.746 55.9761 31.8131 56.2094C31.9101 56.5462 32.1301 56.7725 32.477 56.8696C32.5877 56.9011 32.7049 56.91 32.8013 56.9261Z" fill="#5D0A8B"/>
<path d="M85 37.8469C84.9923 37.8572 84.9809 37.8676 84.9773 37.8789C84.9387 38.0052 84.857 38.1149 84.7457 38.1898C84.6345 38.2648 84.5003 38.3005 84.3654 38.291C84.0655 38.2681 83.8403 38.0707 83.7926 37.7993C83.728 37.4316 84.0344 37.1214 84.3823 37.1226C84.6303 37.1235 84.8178 37.2199 84.9408 37.4304C84.9644 37.4708 84.9804 37.5155 85 37.5581V37.8469ZM84.8676 37.6985C84.8639 37.4322 84.6565 37.2234 84.3964 37.2247C84.1326 37.226 83.918 37.4472 83.9254 37.7102C83.9328 37.9757 84.1414 38.1796 84.404 38.1781C84.6647 38.1767 84.8713 37.963 84.8676 37.6985Z" fill="#5D0A8B"/>
<path d="M38.6305 44.9278H31.7666C31.7823 45.0268 31.7909 45.1114 31.8095 45.1939C32.0381 46.2072 32.6161 46.9532 33.5934 47.3848C33.9707 47.5512 34.3723 47.6234 34.7872 47.6277C35.286 47.6327 35.7748 47.5788 36.2364 47.3829C36.6311 47.2154 36.9832 46.9801 37.3077 46.706C37.4171 46.6137 37.5189 46.513 37.6223 46.4143C37.6446 46.393 37.6589 46.3637 37.6817 46.3316L38.5283 47.0306C38.4584 47.1019 38.3965 47.1674 38.3318 47.2302C37.9314 47.6199 37.4771 47.953 36.982 48.22C36.5564 48.4498 36.1001 48.5837 35.6203 48.6486C35.3191 48.6893 35.0164 48.712 34.7124 48.7026C33.5942 48.6682 32.6151 48.2954 31.8078 47.533C31.2007 46.9597 30.811 46.2607 30.6423 45.454C30.458 44.5761 30.4959 43.7061 30.8224 42.8628C31.2718 41.7033 32.0833 40.8813 33.2741 40.4281C33.6315 40.292 34.0052 40.2243 34.3881 40.1998C34.9297 40.1652 35.4613 40.2146 35.9755 40.3851C36.9515 40.7088 37.668 41.3299 38.1445 42.217C38.4127 42.7164 38.5691 43.2492 38.635 43.8086C38.6668 44.0718 38.6789 44.337 38.6713 44.602C38.6678 44.7071 38.6456 44.8118 38.6305 44.9278ZM37.4279 43.8956C37.4279 43.8624 37.4316 43.835 37.4273 43.809C37.3602 43.3991 37.2479 43.0033 37.0488 42.6335C36.7546 42.0881 36.3307 41.6748 35.7446 41.4317C35.303 41.2487 34.8397 41.2028 34.3649 41.2466C33.753 41.3033 33.2212 41.538 32.7749 41.9471C32.2881 42.3932 31.9837 42.9442 31.8301 43.5757C31.8052 43.678 31.7904 43.7822 31.7692 43.8958L37.4279 43.8956Z" fill="#5D0A8B"/>
<path d="M59.1222 43.6163C59.1282 43.5927 59.1353 43.5767 59.1357 43.5605C59.1445 43.2311 59.1082 42.9078 58.9924 42.5961C58.822 42.1376 58.4955 41.8192 58.0523 41.608C57.7577 41.4677 57.4437 41.3911 57.1191 41.3542C56.0595 41.2342 55.064 41.4544 54.1122 41.9004C54.0423 41.9332 53.9725 41.9661 53.9023 41.9986C53.8966 42.0011 53.8889 41.9998 53.87 42.0011C53.7287 41.6844 53.5854 41.3635 53.4399 41.0385C53.4646 41.0217 53.4823 41.0055 53.5035 40.9959C54.102 40.7209 54.7167 40.4898 55.3684 40.3644C55.897 40.2624 56.4312 40.2317 56.9696 40.2611C57.409 40.2849 57.8394 40.3511 58.2553 40.4941C58.9345 40.7274 59.482 41.1231 59.8516 41.7348C60.0679 42.0927 60.1894 42.4818 60.2474 42.8916C60.2803 43.124 60.2885 43.3573 60.2884 43.5917C60.2874 45.1854 60.2871 46.7791 60.2878 48.3729V48.5127H59.1464C59.1433 48.4785 59.1374 48.4426 59.1373 48.4068C59.1364 48.1624 59.1373 47.9179 59.1373 47.6734V47.5442C59.1031 47.5674 59.0853 47.576 59.072 47.5889C58.4381 48.1992 57.6668 48.5385 56.7939 48.6583C55.9674 48.7719 55.1598 48.6842 54.3894 48.3548C53.8781 48.1362 53.4478 47.8167 53.1296 47.3624C52.901 47.0363 52.7768 46.6769 52.7481 46.2835C52.7176 45.8687 52.7629 45.4648 52.9315 45.0806C53.1434 44.5971 53.4925 44.2262 53.9479 43.9492C54.3665 43.6945 54.826 43.5444 55.3068 43.4491C55.8502 43.3416 56.3998 43.3336 56.9512 43.3427C57.6314 43.3539 58.3016 43.439 58.9644 43.584C59.0156 43.5954 59.067 43.6051 59.1222 43.6163ZM59.1472 44.6821C59.1162 44.6734 59.0898 44.6644 59.0625 44.6588C58.9106 44.6278 58.7587 44.5968 58.6068 44.567C58.0279 44.4544 57.4446 44.3781 56.8532 44.3686C56.4045 44.3612 55.9564 44.3616 55.5144 44.4543C55.1731 44.5259 54.8505 44.6397 54.5644 44.8411C53.9838 45.2498 53.8497 45.8629 54.016 46.4428C54.1104 46.772 54.3366 47.0128 54.6208 47.2021C55.0069 47.4594 55.443 47.5813 55.903 47.617C56.4433 47.6592 56.9741 47.5973 57.4866 47.4154C57.9171 47.2627 58.3066 47.0457 58.6204 46.7142C58.9026 46.416 59.0921 46.0725 59.1411 45.6636C59.144 45.6501 59.1462 45.6365 59.1474 45.6228C59.1473 45.3134 59.1472 45.004 59.1472 44.6821Z" fill="#5D0A8B"/>
<path d="M29.7337 48.5149H28.5777C28.5761 48.4691 28.5734 48.4257 28.5734 48.3823C28.5734 46.8296 28.5734 45.2768 28.5734 43.7241C28.5734 43.3499 28.5272 42.9819 28.3879 42.6306C28.0783 41.8495 27.4981 41.396 26.6472 41.2701C26.1697 41.1998 25.6936 41.2075 25.2335 41.3579C24.2543 41.6776 23.6469 42.3288 23.447 43.3229C23.4113 43.5006 23.4007 43.6855 23.4003 43.8671C23.3967 45.3682 23.396 46.8692 23.3983 48.3703V48.5015C23.316 48.5242 22.3888 48.53 22.2454 48.5097V40.373C22.6242 40.3709 23.0032 40.3722 23.3941 40.3723V41.4001C23.4508 41.4097 23.4645 41.3709 23.4857 41.3484C23.6974 41.1216 23.9335 40.9177 24.1901 40.7404C24.5627 40.4814 24.9791 40.3281 25.4266 40.2549C26.0751 40.1484 26.7222 40.1588 27.3577 40.3327C28.239 40.5738 28.9205 41.0687 29.3462 41.8717C29.5563 42.2677 29.6722 42.6919 29.7109 43.1351C29.727 43.3199 29.733 43.5062 29.7332 43.6918C29.7349 45.2513 29.7352 46.811 29.7342 48.3707L29.7337 48.5149Z" fill="#5D0A8B"/>
<path d="M47.3733 41.8212L46.5461 42.6165C46.5093 42.5823 46.4786 42.5545 46.449 42.526C46.1377 42.2236 45.7956 41.9592 45.4296 41.7219C45.0545 41.4789 44.6462 41.3326 44.1987 41.2861C43.7412 41.2384 43.2874 41.2525 42.8469 41.3893C41.7627 41.7253 41.0402 42.4317 40.7294 43.4913C40.3825 44.6742 40.6335 45.7508 41.498 46.6622C42.0148 47.2067 42.667 47.5175 43.4258 47.605C44.2641 47.7016 45.0304 47.5205 45.7203 47.0394C46.0086 46.8384 46.278 46.6176 46.5175 46.3626C46.5412 46.3372 46.565 46.3117 46.5893 46.2868C46.5989 46.28 46.6092 46.2743 46.62 46.2695L47.4389 46.9463C47.422 46.9688 47.4112 46.9861 47.3975 47.001C46.9413 47.4975 46.4192 47.9143 45.8216 48.2397C45.4253 48.4554 44.9993 48.5833 44.5521 48.648C44.1502 48.7077 43.7424 48.7195 43.3376 48.6831C42.6252 48.6166 41.9683 48.3909 41.3683 48.0118C40.3793 47.3877 39.7492 46.5163 39.478 45.3975C39.3696 44.948 39.3589 44.4921 39.397 44.0327C39.5109 42.6613 40.4566 41.1127 42.2277 40.4569C42.6329 40.3068 43.0536 40.2262 43.4866 40.1993C44.2512 40.1518 44.9849 40.2669 45.684 40.5769C46.2013 40.8063 46.6482 41.1336 47.0573 41.5139C47.1615 41.6111 47.2617 41.7124 47.3733 41.8212Z" fill="#5D0A8B"/>
<path d="M48.4338 37.8901H49.5943C49.5971 37.9388 49.6015 37.9823 49.6016 38.0258C49.602 38.7591 49.602 39.4924 49.6016 40.2258V40.3704H52.5183V41.415C52.272 41.417 52.0299 41.4156 51.7879 41.4159C51.5477 41.4159 51.3075 41.4159 51.0674 41.4159H49.6098C49.6067 41.4594 49.6023 41.4926 49.6023 41.5256C49.6023 43.1127 49.6023 44.6999 49.6023 46.2871C49.6023 46.4845 49.6251 46.6782 49.6916 46.8655C49.7712 47.0907 49.9163 47.2598 50.1329 47.3716C50.3586 47.488 50.6013 47.5407 50.8534 47.5606C50.9413 47.5677 51.0291 47.5734 51.115 47.5796C51.1374 47.6581 51.1449 48.4538 51.1256 48.6383C51.1121 48.6428 51.0963 48.652 51.0803 48.6525C50.6281 48.6647 50.1832 48.6221 49.7619 48.4506C49.0666 48.1675 48.656 47.6526 48.495 46.9419C48.4491 46.7397 48.4343 46.5336 48.4342 46.3266C48.4342 43.5621 48.4342 40.7977 48.4342 38.0332L48.4338 37.8901Z" fill="#5D0A8B"/>
<path d="M65.0607 44.4189C65.0664 44.6379 65.0607 44.8482 65.0796 45.0564C65.1313 45.6348 65.3136 46.1663 65.6982 46.6201C66.0223 47.0022 66.4399 47.2523 66.9143 47.4148C67.4416 47.5953 67.9867 47.6451 68.5419 47.6103C69.6391 47.5416 70.6631 47.2104 71.6594 46.7815C72.211 46.5431 72.7463 46.2704 73.262 45.965C73.2836 45.9506 73.3089 45.9422 73.335 45.9405C73.3283 45.9532 73.3203 45.9653 73.3111 45.9765C72.3106 46.9681 71.2155 47.8414 69.9612 48.514C69.3684 48.8319 68.7485 49.0857 68.0872 49.2362C67.7181 49.3202 67.3439 49.3687 66.9648 49.363C66.0825 49.3495 65.2965 49.0761 64.6225 48.516C64.2812 48.2322 64.0351 47.8843 63.9268 47.4549C63.8329 47.0831 63.8546 46.7113 63.9506 46.3416C64.076 45.8588 64.3035 45.421 64.59 45.0125C64.7252 44.8197 64.879 44.6392 65.0245 44.4534C65.0356 44.4411 65.0478 44.4295 65.0607 44.4189Z" fill="#5D0A8B"/>
<path d="M73.0972 41.2329C73.2209 41.0184 73.3705 40.8315 73.5316 40.6531C73.9739 40.1622 74.4756 39.7424 75.0848 39.46C75.5904 39.2257 76.1186 39.0536 76.6742 38.9735C76.9926 38.9288 77.3157 38.9241 77.6354 38.9595C78.1157 39.0111 78.5946 39.0764 79.0751 39.1258C79.5289 39.1724 79.9841 39.1683 80.4394 39.1375C81.2169 39.0846 81.9776 38.9429 82.7271 38.7389C82.8416 38.7079 82.9553 38.6732 83.0815 38.6367C83.0709 38.6589 83.0677 38.6717 83.0598 38.6808C82.5863 39.2233 82.0676 39.7164 81.4607 40.1182C81.0402 40.3964 80.5728 40.5493 80.0772 40.6315C79.3808 40.7471 78.6792 40.7525 77.9763 40.7212C77.7048 40.7092 77.4336 40.6922 77.1624 40.6749C76.8173 40.6529 76.4727 40.6169 76.1274 40.6082C75.8665 40.6017 75.6055 40.6134 75.3464 40.6433C74.5851 40.7312 73.8557 40.9422 73.1446 41.2166C73.1291 41.2227 73.1135 41.2276 73.0972 41.2329Z" fill="#5D0A8B"/>
<path d="M80.0676 43.1934C80.0451 43.2272 80.0388 43.2394 80.03 43.2495C79.5702 43.7757 79.0653 44.2536 78.4806 44.6492C78.0691 44.9275 77.6128 45.0889 77.1243 45.1759C76.7555 45.2414 76.3833 45.2714 76.0089 45.2855C75.4473 45.3067 74.8866 45.2812 74.3266 45.2431C73.9253 45.2158 73.5245 45.1772 73.1228 45.1594C72.5938 45.136 72.0738 45.2157 71.5601 45.3312C71.0859 45.4388 70.6205 45.5806 70.1678 45.7556C70.1391 45.7666 70.1098 45.7762 70.073 45.7886C70.0771 45.771 70.0767 45.7606 70.0816 45.7539C70.5885 45.037 71.2076 44.4367 72.0124 44.043C72.5608 43.7744 73.1416 43.5925 73.7533 43.517C74.0702 43.4779 74.3878 43.486 74.7043 43.5226C75.1879 43.5779 75.6704 43.6427 76.1547 43.6904C76.5165 43.7261 76.8803 43.7241 77.2444 43.7045C77.7588 43.6755 78.2705 43.6114 78.7757 43.5127C79.1669 43.4382 79.5537 43.3435 79.9346 43.2289C79.9711 43.2179 80.0081 43.2092 80.0676 43.1934Z" fill="#5D0A8B"/>
<path d="M75.6573 41.2442C75.5155 41.3965 75.3764 41.5514 75.2312 41.7008C74.8964 42.0463 74.529 42.3603 74.1338 42.6387C73.6948 42.9472 73.2045 43.1242 72.6756 43.2152C72.0814 43.317 71.482 43.3363 70.8816 43.3172C70.3949 43.3017 69.909 43.2671 69.4227 43.2399C69.074 43.2202 68.7268 43.177 68.3762 43.1917C67.8945 43.2124 67.4225 43.2934 66.9563 43.4086C66.5392 43.5123 66.1295 43.6424 65.7298 43.7982C65.7079 43.8067 65.6857 43.814 65.6487 43.8272C65.6562 43.8109 65.6646 43.7951 65.6738 43.7797C66.1579 43.0956 66.7461 42.5174 67.5037 42.1238C68.0623 41.8327 68.6693 41.6401 69.2967 41.555C69.6445 41.5074 69.9943 41.5195 70.3425 41.5586C70.8332 41.6137 71.3226 41.6803 71.814 41.727C72.2328 41.7668 72.6529 41.753 73.0727 41.721C73.6673 41.6746 74.2571 41.5818 74.8364 41.4435C75.1068 41.3797 75.3741 41.3035 75.6427 41.2329L75.6573 41.2442Z" fill="#5D0A8B"/>
<path d="M19.7498 40.376H20.8895C20.9158 40.4571 20.9194 48.4077 20.8927 48.5138H19.7498V40.376Z" fill="#5D0A8B"/>
<path d="M11.6334 54.7388C11.6442 54.7312 11.6543 54.7227 11.6634 54.7133C11.8998 54.4178 12.2222 54.2755 12.5938 54.2392C12.9654 54.2028 13.3192 54.2726 13.6382 54.4697C13.9964 54.6908 14.2126 55.0121 14.3107 55.4105C14.4088 55.809 14.3895 56.2058 14.2189 56.5832C13.967 57.1409 13.517 57.4363 12.8976 57.4899C12.6327 57.5128 12.3766 57.4778 12.1331 57.3684C11.9572 57.2895 11.8035 57.1825 11.6818 57.0345C11.6671 57.0165 11.6588 56.9932 11.6475 56.9725L11.6125 56.9921V57.4141H11.033C11.0063 57.3324 11.0035 52.5581 11.0299 52.46H11.6091V54.7316L11.6334 54.7388ZM13.742 55.8646L13.7314 55.8628C13.7286 55.8215 13.7256 55.7802 13.7226 55.7389C13.6852 55.227 13.3267 54.7819 12.6893 54.7721C12.1913 54.7645 11.7992 55.0328 11.6628 55.4888C11.5885 55.7314 11.588 55.9897 11.6614 56.2325C11.761 56.5647 11.9738 56.7975 12.3173 56.9058C12.4522 56.9473 12.5937 56.9645 12.7349 56.9567C13.1981 56.9361 13.5544 56.6643 13.6769 56.2289C13.7107 56.1107 13.7213 55.9864 13.7423 55.8648L13.742 55.8646Z" fill="#5D0A8B"/>
<path d="M40.4901 57.4171H39.9009C39.8797 57.2739 39.9042 57.1307 39.8841 56.9751C39.867 56.9886 39.8506 57.0031 39.8351 57.0184C39.5715 57.3306 39.2245 57.4786 38.8179 57.4936C38.2863 57.5127 37.8332 57.3432 37.4934 56.9309C37.3196 56.7202 37.2167 56.4764 37.1689 56.2113C37.0995 55.8252 37.1326 55.4485 37.3066 55.0927C37.5453 54.6052 37.9482 54.3301 38.4943 54.2504C38.772 54.2098 39.0429 54.2319 39.3057 54.3317C39.5103 54.4093 39.6866 54.5253 39.8239 54.6943C39.8368 54.7103 39.852 54.7245 39.8696 54.7432C39.9077 54.707 39.892 54.664 39.8921 54.6267C39.8932 53.9489 39.8935 53.271 39.893 52.5931V52.4557C39.9952 52.4557 40.0889 52.4547 40.1826 52.4546C40.2762 52.4545 40.3733 52.4546 40.4801 52.4546C40.4838 52.5015 40.4907 52.5442 40.4907 52.5867C40.4912 53.65 40.4912 54.7132 40.4907 55.7765V57.4172L40.4901 57.4171ZM38.849 54.7723C38.8066 54.7742 38.768 54.7748 38.7293 54.778C38.3202 54.8124 38.0279 55.0083 37.8662 55.3788C37.7803 55.5758 37.7624 55.783 37.7791 55.9956C37.8125 56.4171 38.078 56.8795 38.6922 56.9493C39.1584 57.0023 39.6628 56.8077 39.8372 56.2436C39.8576 56.1778 39.8722 56.1104 39.8807 56.0422C39.9098 55.8025 39.8896 55.5671 39.7839 55.346C39.5986 54.9589 39.274 54.7842 38.849 54.7723Z" fill="#5D0A8B"/>
<path d="M57.4161 54.7331V52.4619H58.0111V57.4134H57.4352C57.4011 57.3464 57.4236 57.2733 57.4191 57.2031C57.4147 57.1328 57.4158 57.0626 57.4141 56.9721C57.3846 56.9993 57.3717 57.0091 57.3611 57.0213C57.1417 57.2872 56.8499 57.4344 56.5106 57.4793C56.0762 57.5369 55.666 57.4586 55.3058 57.1994C54.9909 56.9729 54.802 56.6652 54.7157 56.2966C54.6203 55.8884 54.647 55.4877 54.8284 55.1063C55.0632 54.6122 55.4672 54.3324 56.0175 54.2504C56.3288 54.2041 56.6296 54.2363 56.9171 54.3656C57.0866 54.4417 57.2324 54.5476 57.349 54.6906C57.362 54.7065 57.3768 54.7216 57.3906 54.7366L57.4161 54.7331ZM57.4331 55.8701L57.4206 55.8674C57.4172 55.8054 57.4165 55.7434 57.41 55.6821C57.4039 55.6344 57.3946 55.5871 57.3821 55.5406C57.254 55.0337 56.8423 54.7838 56.396 54.7728C55.8713 54.7599 55.4657 55.049 55.3387 55.5446C55.3033 55.683 55.2989 55.8235 55.3063 55.9648C55.3281 56.3829 55.5742 56.8798 56.2317 56.9504C56.7073 57.0015 57.1908 56.7978 57.3621 56.2535C57.4005 56.1301 57.4102 55.998 57.4331 55.8704V55.8701Z" fill="#5D0A8B"/>
<path d="M23.0245 55.6441C23.0516 55.6191 23.0795 55.5949 23.1058 55.5691C23.5096 55.1741 23.9129 54.7786 24.3159 54.3827C24.364 54.3352 24.4119 54.3126 24.4816 54.3139C24.6863 54.3181 24.8912 54.3154 25.0961 54.3154H25.2037C25.0993 54.4327 24.9971 54.5195 24.9011 54.6119C24.8051 54.7042 24.7088 54.7944 24.6125 54.8856L24.3165 55.1665C24.2204 55.2577 24.1233 55.348 24.0282 55.4402C23.931 55.5344 23.8358 55.6305 23.7333 55.7319L25.3288 57.4052C25.2983 57.413 25.2804 57.4215 25.2626 57.4215C25.0295 57.4224 24.7964 57.42 24.5633 57.4235C24.5004 57.4245 24.4673 57.391 24.4316 57.3521C24.1278 57.0209 23.8241 56.6899 23.5203 56.3591C23.3791 56.2051 23.2375 56.0515 23.0971 55.8967C23.0742 55.8714 23.0572 55.8409 23.0375 55.8128L23.0035 55.8296C23.0014 55.8649 22.9975 55.9004 22.9974 55.9357C22.997 56.3866 22.997 56.8377 22.9974 57.2887V57.4155H22.4119V52.4609H22.9946V55.6305L23.0245 55.6441Z" fill="#5D0A8B"/>
<path d="M52.0488 56.8654C51.858 57.106 51.6326 57.2777 51.3547 57.3782C50.9718 57.5194 50.553 57.54 50.1574 57.4368C49.6557 57.3087 49.3036 57.0019 49.1214 56.5279C48.9307 56.031 48.9421 55.5332 49.1966 55.0585C49.4455 54.5938 49.8503 54.3309 50.3805 54.2502C50.6043 54.2165 50.8327 54.224 51.0536 54.2724C51.4345 54.3544 51.7317 54.5541 51.936 54.8796C52.1641 55.2432 52.218 55.6439 52.1918 56.075C51.7615 56.0787 51.3356 56.0762 50.9097 56.0767C50.4875 56.0767 50.0651 56.0767 49.6363 56.0767C49.6312 56.2265 49.6712 56.3744 49.7512 56.5023C49.8996 56.7424 50.1244 56.8831 50.3965 56.9542C50.8108 57.0625 51.1708 56.9669 51.472 56.6676C51.5138 56.6263 51.5543 56.5836 51.6034 56.5334L52.0488 56.8654ZM51.5665 55.6084C51.5585 55.5371 51.556 55.473 51.5435 55.4107C51.4773 55.0676 51.2899 54.823 50.9331 54.7318C50.8223 54.7035 50.7029 54.6956 50.5877 54.6975C50.1547 54.7044 49.7597 55.0161 49.6576 55.4262C49.6433 55.4836 49.62 55.544 49.6445 55.6084H51.5665Z" fill="#5D0A8B"/>
<path d="M74.0846 56.079H71.5325C71.5246 56.207 71.5529 56.3347 71.6142 56.4481C71.7586 56.7243 71.9999 56.8805 72.2993 56.9571C72.7058 57.0613 73.0585 56.9678 73.3573 56.6766C73.4019 56.6331 73.4507 56.594 73.5082 56.5423L73.941 56.8647C73.9132 56.8987 73.8908 56.9285 73.8659 56.9562C73.5736 57.28 73.2007 57.4473 72.765 57.4859C72.5213 57.5073 72.2776 57.5027 72.0406 57.4353C71.4387 57.2646 71.0775 56.8705 70.9378 56.283C70.8479 55.9051 70.871 55.529 71.0343 55.1713C71.2755 54.6421 71.6968 54.3383 72.2828 54.2496C72.5172 54.2139 72.7565 54.2247 72.9865 54.2814C73.3847 54.3785 73.6824 54.6048 73.8758 54.9587C74.0643 55.3042 74.1097 55.6749 74.0846 56.079ZM71.5242 55.5977C71.6348 55.6227 73.3639 55.6207 73.449 55.5977C73.4523 55.5816 73.454 55.5652 73.4539 55.5488C73.4486 55.4972 73.4439 55.4461 73.4335 55.3956C73.3635 55.0571 73.173 54.8194 72.8215 54.7302C72.7172 54.7037 72.6053 54.6962 72.4971 54.697C72.0554 54.7004 71.6636 55.0026 71.553 55.42C71.5377 55.4786 71.5336 55.5399 71.5242 55.5977Z" fill="#5D0A8B"/>
<path d="M67.9546 56.0774H65.4024C65.4024 56.1281 65.3964 56.1718 65.4034 56.2133C65.4387 56.4218 65.5395 56.5974 65.7082 56.7297C66.0161 56.9705 66.3646 57.0544 66.7509 56.9592C66.9298 56.9152 67.0765 56.8141 67.2085 56.6907C67.2593 56.6433 67.3131 56.5991 67.3757 56.5446L67.8055 56.8637C67.7825 56.8941 67.7655 56.9196 67.7454 56.9423C67.454 57.2721 67.08 57.4452 66.6401 57.4858C66.3714 57.5106 66.1029 57.5028 65.844 57.4181C65.2539 57.2253 64.9109 56.8169 64.7933 56.2303C64.712 55.8251 64.7509 55.4268 64.956 55.0569C65.2116 54.5954 65.6118 54.3307 66.1419 54.2505C66.3622 54.2174 66.5869 54.2244 66.8046 54.2711C67.223 54.3589 67.5357 54.5861 67.7389 54.9528C67.9308 55.2999 67.977 55.6749 67.9546 56.0774ZM67.321 55.6099C67.3172 55.5536 67.3158 55.5066 67.3104 55.4598C67.2699 55.0932 67.0395 54.816 66.6914 54.7309C66.5817 54.7059 66.4692 54.6945 66.3566 54.6972C65.8939 54.7023 65.4854 55.0432 65.403 55.4867C65.3959 55.5249 65.402 55.5655 65.402 55.6099H67.321Z" fill="#5D0A8B"/>
<path d="M42.9553 57.5023C42.1394 57.493 41.453 56.9602 41.2975 56.1926C41.0973 55.2032 41.7996 54.3627 42.711 54.2508C43.3964 54.1665 43.9643 54.3867 44.3602 54.9428C45.0393 55.8973 44.5061 57.2495 43.2704 57.4687C43.1667 57.4872 43.0604 57.4919 42.9553 57.5023ZM42.9615 54.7727C42.9345 54.774 42.8956 54.7746 42.857 54.7777C42.4567 54.8103 42.1683 55.0003 42.001 55.3588C41.9435 55.4821 41.9152 55.6134 41.9035 55.7475C41.8823 55.9926 41.9176 56.2296 42.0403 56.4466C42.2572 56.83 42.6086 56.9756 43.0402 56.9543C43.5154 56.931 43.871 56.6341 43.9806 56.1842C44.0217 56.0167 44.0301 55.8431 44.0056 55.6724C43.9282 55.1258 43.5391 54.7847 42.9615 54.773V54.7727Z" fill="#5D0A8B"/>
<path d="M17.1797 55.4948C17.2451 55.1891 17.0861 54.8432 16.7265 54.7398C16.3874 54.6422 16.0625 54.6915 15.7617 54.8741C15.6785 54.9246 15.6003 54.9829 15.5117 55.0431L15.159 54.6877C15.1932 54.6582 15.2204 54.6322 15.2503 54.6093C15.497 54.4191 15.7801 54.3091 16.0874 54.2581C16.3798 54.2099 16.672 54.219 16.9583 54.2975C17.271 54.3831 17.5209 54.5494 17.6614 54.8466C17.7293 54.9901 17.7521 55.1424 17.7525 55.2986C17.7535 55.8803 17.7531 56.462 17.7551 57.0442C17.7551 57.1639 17.7637 57.2837 17.7684 57.4028C17.6961 57.4261 17.4008 57.4318 17.2531 57.4113C17.224 57.2679 17.2433 57.1165 17.2253 56.9504C17.1961 56.9768 17.177 56.9891 17.1645 57.006C16.9287 57.3254 16.6045 57.4765 16.2062 57.4934C15.9739 57.5037 15.7477 57.484 15.5337 57.388C15.2247 57.2496 15.0318 57.0212 14.9949 56.6882C14.9553 56.3316 15.0637 56.028 15.3728 55.8112C15.5719 55.6717 15.7996 55.6005 16.037 55.5556C16.2625 55.5141 16.4916 55.4939 16.7212 55.4951L17.1797 55.4948ZM17.1892 55.9318C17.1722 55.9259 17.1627 55.9198 17.153 55.9196C16.8532 55.9138 16.5531 55.9103 16.2569 55.9656C16.0866 55.9975 15.9203 56.0439 15.7789 56.1486C15.6249 56.2622 15.563 56.4142 15.5874 56.6009C15.6122 56.7908 15.7215 56.9139 15.9023 56.979C16.0432 57.0298 16.1905 57.045 16.3395 57.0359C16.5832 57.0209 16.8039 56.9489 16.9686 56.762C17.1813 56.5205 17.2149 56.2336 17.1892 55.9318Z" fill="#5D0A8B"/>
<path d="M75.433 57.4168H74.8602C74.8532 57.4107 74.8504 57.4085 74.8481 57.4064C74.8458 57.4044 74.8426 57.4013 74.8422 57.3984C74.8387 57.3816 74.8365 57.3646 74.8357 57.3476C74.8357 56.3498 74.8361 55.3519 74.8369 54.3539C74.8369 54.3443 74.8426 54.3348 74.8475 54.3192H75.4285C75.4312 54.4683 75.4338 54.6165 75.4367 54.7785C75.4585 54.7616 75.4685 54.7579 75.4727 54.7501C75.6352 54.4743 75.8906 54.3286 76.1997 54.2626C76.4492 54.2093 76.699 54.2162 76.9409 54.2994C77.3647 54.445 77.5806 54.7547 77.6413 55.1765C77.6554 55.2857 77.6619 55.3956 77.6606 55.5057C77.6624 56.101 77.6614 56.6962 77.6614 57.2916V57.4143C77.4611 57.4288 77.2694 57.4226 77.0681 57.4182C77.0658 57.3697 77.0625 57.3297 77.0625 57.2896C77.0625 56.7253 77.0632 56.1609 77.0613 55.5967C77.0622 55.5108 77.0548 55.425 77.0391 55.3405C76.965 54.9687 76.7011 54.7656 76.3109 54.7744C75.854 54.7847 75.5465 55.0407 75.4632 55.4889C75.4433 55.6042 75.4336 55.7209 75.4342 55.8377C75.4311 56.3195 75.4329 56.8012 75.4329 57.2829L75.433 57.4168Z" fill="#5D0A8B"/>
<path d="M27.5403 54.3188H28.1195C28.1301 54.4663 28.1184 54.6161 28.1271 54.7826C28.1515 54.762 28.1661 54.7539 28.1733 54.7419C28.3381 54.4669 28.5962 54.3244 28.9052 54.2604C29.1548 54.2088 29.4046 54.2178 29.6469 54.3023C30.0307 54.4366 30.2471 54.7122 30.3233 55.0953C30.3441 55.2069 30.3542 55.3202 30.3534 55.4337C30.3562 56.0569 30.3548 56.6799 30.3548 57.3032V57.4179C30.1553 57.426 29.9667 57.4225 29.766 57.4196C29.7641 57.3745 29.7609 57.3348 29.7609 57.2951C29.7609 56.7237 29.7617 56.1522 29.7595 55.5805C29.7597 55.4945 29.7511 55.4087 29.7339 55.3244C29.6583 54.9678 29.3932 54.7681 29.0114 54.7739C28.5657 54.7809 28.2591 55.0241 28.1677 55.4548C28.1407 55.5863 28.1267 55.72 28.126 55.8541C28.1213 56.3292 28.1241 56.8043 28.1241 57.2795V57.4001C28.0424 57.4279 27.645 57.4311 27.5407 57.4065L27.5403 54.3188Z" fill="#5D0A8B"/>
<path d="M19.2431 57.4148H18.6562V54.3193H19.2442V54.7668L19.2754 54.7819C19.2794 54.7688 19.2846 54.7561 19.2907 54.7438C19.4497 54.4753 19.699 54.3326 20.0007 54.2656C20.2501 54.21 20.4987 54.216 20.7424 54.2955C21.1424 54.4263 21.3635 54.7087 21.443 55.1038C21.4606 55.195 21.4692 55.2877 21.4688 55.3806C21.471 56.0242 21.47 56.6679 21.47 57.312V57.4177C21.2745 57.4262 21.0861 57.4226 20.886 57.4192C20.8838 57.3739 20.8802 57.3341 20.8802 57.2944C20.8802 56.7366 20.8812 56.1789 20.8789 55.6211C20.8798 55.5248 20.8709 55.4286 20.8525 55.3339C20.7747 54.9634 20.5073 54.7664 20.1171 54.7733C19.6745 54.7812 19.3442 55.039 19.2656 55.5462C19.2509 55.6484 19.2438 55.7515 19.2444 55.8547C19.2423 56.3331 19.2435 56.8116 19.2435 57.2903L19.2431 57.4148Z" fill="#5D0A8B"/>
<path d="M45.4414 54.319H46.0249V54.786C46.053 54.7606 46.0673 54.7523 46.0749 54.74C46.2396 54.4647 46.4988 54.3233 46.8072 54.2597C47.0569 54.208 47.3065 54.2177 47.5482 54.3027C47.9449 54.4425 48.1583 54.7309 48.2295 55.1266C48.2457 55.2216 48.2536 55.3177 48.2532 55.414C48.2552 56.0472 48.2542 56.6805 48.2542 57.3137V57.4032C48.1694 57.4256 47.7959 57.4294 47.6685 57.4094C47.6665 57.3724 47.6623 57.3325 47.6623 57.2928C47.6623 56.7317 47.6631 56.1708 47.6609 55.6098C47.6617 55.5204 47.6539 55.4311 47.6376 55.343C47.5635 54.9718 47.2986 54.7666 46.91 54.7734C46.4374 54.7816 46.1177 55.0632 46.05 55.536C46.0351 55.6415 46.0274 55.7479 46.027 55.8545C46.0247 56.3328 46.026 56.8112 46.026 57.2896V57.4135C45.8284 57.4268 45.6373 57.4238 45.4414 57.4156V54.319Z" fill="#5D0A8B"/>
<path d="M63.5291 57.4199C63.3303 57.4234 63.1412 57.4216 62.9394 57.421C62.9359 57.372 62.9302 57.3292 62.9302 57.2867C62.9297 56.509 62.9297 55.7312 62.9302 54.9534V54.8185C62.7018 54.7997 62.4805 54.8201 62.2532 54.8056V54.3162H62.9218C62.9252 54.2665 62.9293 54.2303 62.9299 54.194C62.9349 53.9188 62.9337 53.6434 62.9464 53.3686C62.9519 53.2497 62.9765 53.1294 63.0085 53.0141C63.1011 52.6814 63.3227 52.4777 63.6716 52.4077C63.9065 52.3605 64.1414 52.3663 64.3768 52.4002C64.4039 52.4041 64.4298 52.4146 64.4658 52.4245C64.4441 52.5911 64.4234 52.7533 64.4023 52.9141C64.2875 52.9011 64.184 52.8812 64.0801 52.8792C63.7391 52.8725 63.5715 53.0127 63.5515 53.3459C63.533 53.6511 63.5392 53.9578 63.535 54.2638C63.535 54.2742 63.5401 54.2834 63.5465 54.3066C63.7737 54.3209 64.0053 54.3066 64.2391 54.3151C64.2695 54.3949 64.252 54.4741 64.255 54.5515C64.2579 54.6288 64.2556 54.7093 64.2556 54.801C64.2132 54.8045 64.1758 54.81 64.139 54.8102C63.9767 54.8111 63.8143 54.8102 63.6516 54.811C63.614 54.811 63.5764 54.816 63.5296 54.8194L63.5291 57.4199Z" fill="#5D0A8B"/>
<path d="M61.3978 57.4141H60.8087V54.8235C60.5797 54.7925 60.3581 54.8247 60.1411 54.8041C60.1124 54.7231 60.1093 54.425 60.1376 54.3131H60.7975C60.8007 54.2663 60.8052 54.2305 60.8053 54.1938C60.8059 53.9839 60.8053 53.774 60.8053 53.5638C60.8034 53.3881 60.8248 53.213 60.8688 53.0427C60.9628 52.6938 61.1851 52.4746 61.553 52.4048C61.7878 52.36 62.0231 52.3646 62.2583 52.4019C62.2757 52.405 62.2927 52.4095 62.3094 52.4153C62.3186 52.4202 62.3272 52.426 62.3352 52.4327C62.3152 52.5901 62.2945 52.7529 62.274 52.9137C62.1617 52.9009 62.0579 52.8827 61.9537 52.8792C61.8762 52.8775 61.7989 52.8859 61.7238 52.9044C61.6035 52.9332 61.5142 53.0087 61.475 53.1235C61.4442 53.2137 61.4171 53.3094 61.4142 53.404C61.4056 53.6894 61.4097 53.9752 61.4091 54.2613C61.4104 54.2731 61.4128 54.2848 61.4162 54.2962C61.4885 54.3272 61.5666 54.309 61.6421 54.3119C61.7232 54.315 61.8045 54.3125 61.8858 54.3125H62.1231V54.8077H61.4069C61.4031 54.8651 61.3976 54.9083 61.3976 54.9514C61.3971 55.7258 61.3971 56.5001 61.3976 57.2744L61.3978 57.4141Z" fill="#5D0A8B"/>
<path d="M78.8297 54.8094H78.1304V54.3145H78.8223C78.8393 54.0203 78.8211 53.7361 78.8329 53.4551C78.9187 53.4261 79.3165 53.4241 79.421 53.4518V54.3041C79.7123 54.3248 79.9966 54.3026 80.2856 54.3172V54.8032C80.2451 54.8058 80.2076 54.8101 80.1701 54.8102C79.9654 54.8109 79.7607 54.8102 79.5561 54.8109C79.5146 54.8109 79.4733 54.8156 79.4295 54.8183C79.4263 54.851 79.4219 54.8745 79.4219 54.898C79.4219 55.4003 79.4219 55.9027 79.4244 56.405C79.4253 56.4772 79.4332 56.5491 79.448 56.6199C79.4912 56.835 79.6274 56.9489 79.8524 56.9562C79.9299 56.9579 80.0074 56.9524 80.0838 56.94C80.1562 56.9289 80.2267 56.9061 80.3055 56.8867V57.3928C80.228 57.4472 80.1298 57.4598 80.0334 57.4743C79.8045 57.5088 79.5762 57.5085 79.3516 57.4469C79.0996 57.3778 78.9388 57.2207 78.8728 56.9718C78.8344 56.8272 78.8299 56.6794 78.8296 56.5316C78.8285 56.0086 78.8285 55.4856 78.8296 54.9627L78.8297 54.8094Z" fill="#5D0A8B"/>
<path d="M68.7192 54.3184H69.2944V54.7697C69.3496 54.7608 69.3551 54.7214 69.3724 54.6957C69.5949 54.3625 70.0623 54.1679 70.4501 54.2479C70.5406 54.2666 70.5417 54.267 70.5382 54.355C70.5323 54.5065 70.5256 54.6577 70.5182 54.8086C70.5156 54.8344 70.5116 54.86 70.5062 54.8854C70.4326 54.8751 70.3641 54.8622 70.295 54.856C70.0937 54.8381 69.9005 54.8663 69.7205 54.9583C69.5314 55.0551 69.4199 55.2141 69.3586 55.409C69.3155 55.551 69.2944 55.6986 69.2962 55.8467V57.4195C69.1001 57.4238 68.9117 57.4234 68.7255 57.4195C68.699 57.3375 68.6938 54.4375 68.7192 54.3184Z" fill="#5D0A8B"/>
<path d="M67.3759 45.2828C67.4958 45.281 67.6667 45.328 67.8224 45.4251C68.275 45.7073 68.3119 46.2808 67.8995 46.6161C67.5743 46.8806 67.0722 46.9008 66.7259 46.6635C66.3296 46.392 66.2847 45.876 66.6306 45.5445C66.8185 45.364 67.0489 45.2838 67.3759 45.2828Z" fill="#5D0A8B"/>
<path d="M71.3686 39.7646C71.6416 39.7658 71.8686 39.8451 72.0512 40.0273C72.297 40.2725 72.331 40.6311 72.1389 40.918C71.8249 41.3872 71.0553 41.447 70.6693 41.0323C70.4085 40.7522 70.4064 40.3499 70.6675 40.0666C70.8579 39.8599 71.1016 39.7682 71.3686 39.7646Z" fill="#5D0A8B"/>
<path d="M76.1181 41.8712C76.3496 41.8688 76.5562 41.9363 76.7327 42.0827C77.0473 42.3434 77.0867 42.7779 76.8258 43.0893C76.4874 43.4934 75.8086 43.5281 75.4285 43.1606C75.1445 42.8857 75.1345 42.4572 75.4096 42.1649C75.5992 41.9636 75.8401 41.8728 76.1181 41.8712Z" fill="#5D0A8B"/>
<path d="M79.1534 38.736C78.8728 38.734 78.6466 38.6539 78.4646 38.4715C78.2133 38.22 78.1864 37.8403 78.3976 37.5549C78.7238 37.1138 79.4466 37.0639 79.8343 37.4555C80.102 37.7263 80.1151 38.1331 79.8615 38.4202C79.6696 38.6369 79.4209 38.7328 79.1534 38.736Z" fill="#5D0A8B"/>
<path d="M20.989 38.6858H19.6553V37.3328C19.7335 37.3121 20.8499 37.3068 20.9863 37.3252C21.0081 37.4026 21.0115 38.5738 20.989 38.6858Z" fill="#5D0A8B"/>
<path d="M25.9753 54.3179H26.5452V57.4032C26.4725 57.4259 26.1125 57.4314 25.9807 57.412C25.9548 57.3387 25.948 54.4459 25.9753 54.3179Z" fill="#5D0A8B"/>
<path d="M59.0051 54.3125C59.1844 54.3125 59.3499 54.3125 59.5154 54.3125C59.5359 54.3125 59.5562 54.3161 59.5829 54.3187V57.4173C59.3922 57.4231 59.2015 57.4249 59.0051 57.4154V54.3125Z" fill="#5D0A8B"/>
<path d="M26.2567 53.6106C26.1407 53.6105 26.0296 53.5654 25.9477 53.4854C25.8658 53.4054 25.8199 53.2969 25.8201 53.1839C25.8202 53.0709 25.8664 52.9625 25.9485 52.8827C26.0306 52.8029 26.1419 52.7582 26.2578 52.7583C26.4977 52.7601 26.6964 52.9535 26.6961 53.1851C26.6958 53.4166 26.4955 53.61 26.2567 53.6106Z" fill="#5D0A8B"/>
<path d="M59.2908 53.6107C59.2326 53.6107 59.175 53.5994 59.1213 53.5774C59.0676 53.5554 59.019 53.5232 58.9783 53.4826C58.9376 53.442 58.9057 53.3938 58.8844 53.341C58.8631 53.2882 58.8529 53.2317 58.8544 53.175C58.8578 52.9418 59.0573 52.755 59.2994 52.7583C59.5391 52.7616 59.7352 52.9566 59.7327 53.1888C59.7306 53.3016 59.6831 53.4091 59.6004 53.488C59.5178 53.5669 59.4066 53.611 59.2908 53.6107Z" fill="#5D0A8B"/>
<path d="M84.6697 37.9989H84.5426C84.5301 37.9605 84.5177 37.9253 84.5071 37.8897C84.4733 37.776 84.4435 37.7577 84.303 37.7775C84.2995 37.8453 84.296 37.9157 84.2919 37.9963L84.1934 38.0034C84.169 37.9199 84.1651 37.5431 84.1869 37.4261C84.2998 37.4065 84.4153 37.4055 84.5286 37.4233C84.5922 37.4336 84.6381 37.4717 84.6528 37.5357C84.6674 37.5997 84.6449 37.6502 84.5865 37.6848C84.5748 37.6919 84.5637 37.7001 84.5453 37.7124C84.6368 37.7848 84.6504 37.8857 84.6697 37.9989ZM84.308 37.6867C84.3674 37.6775 84.4199 37.6776 84.4653 37.6603C84.5254 37.6373 84.5328 37.5682 84.4873 37.5268C84.4536 37.4958 84.366 37.4818 84.329 37.5019C84.2854 37.5257 84.3026 37.5675 84.3001 37.6027C84.2987 37.6225 84.3035 37.6427 84.308 37.6867Z" fill="#5D0A8B"/>
</g>
<defs>
<clipPath id="clip0_1_380">
<rect width="74" height="22" fill="white" transform="translate(11 37)"/>
</clipPath>
</defs>
</svg>
